<?xml version="1.0" encoding="UTF-8" standalone="no"?>
<svg
   xmlns:svg="http://www.w3.org/2000/svg"
   xmlns="http://www.w3.org/2000/svg"
   version="1.1"
   id="svg4001"
   viewBox="0 0 1086.7634 316.06174"
   height="316.06174"
   width="1086.7634">
  <defs
     id="defs4003">
    <linearGradient
       id="linearGradient38-3"
       spreadMethod="pad"
       gradientTransform="matrix(1121.3419,0,0,1121.3419,-226.65482,362.22019)"
       gradientUnits="userSpaceOnUse"
       y2="0"
       x2="1"
       y1="0"
       x1="0">
      <stop
         id="stop40-1"
         offset="0"
         style="stop-opacity:1;stop-color:#490b41" />
      <stop
         id="stop42-5"
         offset="0.00456621"
         style="stop-opacity:1;stop-color:#490b41" />
      <stop
         id="stop44-8"
         offset="0.02809"
         style="stop-opacity:1;stop-color:#490b41" />
      <stop
         id="stop46-3"
         offset="0.236264"
         style="stop-opacity:1;stop-color:#67146c" />
      <stop
         id="stop48-6"
         offset="0.505495"
         style="stop-opacity:1;stop-color:#be70bf" />
      <stop
         id="stop50-6"
         offset="0.74306266"
         style="stop-opacity:1;stop-color:#f57c14" />
      <stop
         id="stop52-9"
         offset="0.802198"
         style="stop-opacity:1;stop-color:#f57c14" />
      <stop
         id="stop54-6"
         offset="0.967033"
         style="stop-opacity:1;stop-color:#f1511b" />
      <stop
         id="stop56-5"
         offset="1"
         style="stop-opacity:1;stop-color:#f1511b" />
    </linearGradient>
  </defs>
  <g
     transform="translate(209.09599,-202.90288)"
     id="layer1">
    <path
       id="path58"
       style="fill:url(#linearGradient38-3);stroke:none"
       d="m 777.09046,255.69056 0.005,98.39383 c 0,7.74755 -6.3049,14.05914 -14.0658,14.05914 l 0,0 c -7.74086,0 -14.04576,-6.31159 -14.04576,-14.05914 l 0,0 -0.005,-98.39383 c 0,-26.34835 -21.43934,-47.78768 -47.78099,-47.78768 l 0,0 c -26.35503,0 -47.79435,21.43933 -47.79435,47.78768 l 0,0 0,141.25914 c 0,1.94357 1.56954,3.51979 3.51311,3.51979 l 0,0 c 1.94356,0 3.5131,-1.57622 3.5131,-3.51979 l 0,0 0,-141.25914 c 0,-22.47458 18.28689,-40.76145 40.76814,-40.76145 l 0,0 c 22.46789,0 40.76145,18.28687 40.76145,40.76145 l 0,0 0,98.39383 c 0,11.628 9.45066,21.08535 21.07199,21.08535 l 0,0 c 11.63467,0 21.09202,-9.45735 21.09202,-21.08535 l 0,0 -0.005,-98.39383 c 0,-22.47458 18.28689,-40.76145 40.76149,-40.76145 l 0,0 c 22.4745,0 40.7614,18.28687 40.7614,40.76145 l 0,0 0,135.81582 c 0,1.7432 -1.4093,3.15914 -3.1525,3.15914 l 0,0 c -1.7498,0 -3.1658,-1.41594 -3.1658,-3.15914 l 0,0 -0.01,-135.81582 c 0,-18.98818 -15.4483,-34.43651 -34.4365,-34.43651 l 0,0 c -18.9881,0 -34.42979,15.45501 -34.42979,34.43651 l 0,0 0,98.39383 c 0,15.1144 -12.28921,27.40361 -27.41696,27.40361 l 0,0 c -15.10104,0 -27.40361,-12.28921 -27.40361,-27.40361 l 0,0 0,-98.39383 c 0,-18.98818 -15.44167,-34.43651 -34.42984,-34.43651 l 0,0 c -18.98816,0 -34.44319,15.45501 -34.44319,34.43651 l 0,0 0,135.81582 c 0,5.61697 4.56839,10.18536 10.19204,10.18536 l 0,0 c 5.61696,0 10.18535,-4.56839 10.18535,-10.18536 l 0,0 0,-135.81582 c 0,-7.74755 6.31157,-14.05245 14.0658,-14.05245 l 0,0 c 7.74087,0 14.04577,6.3049 14.04577,14.05245 l 0,0 0.005,98.39383 c 0,26.35503 21.43934,47.78768 47.781,47.78768 l 0,0 c 26.36838,0 47.80103,-21.43265 47.80103,-47.78768 l 0,0 0,-98.39383 c 0,-7.74755 6.2915,-14.05245 14.0458,-14.05245 l 0,0 c 7.7475,0 14.0591,6.3049 14.0591,14.05245 l 0,0 0,141.25914 c 0,1.94357 1.5695,3.51979 3.5131,3.51979 l 0,0 c 1.9369,0 3.5198,-1.57622 3.5198,-3.51979 l 0,0 0,-141.25914 c 0,-11.62133 -9.4707,-21.07868 -21.092,-21.07868 l 0,0 c -11.6214,0 -21.0854,9.45735 -21.0854,21.07868 l 0,0 0,98.39383 c 0,22.47458 -18.28019,40.76145 -40.76143,40.76145 l 0,0 c -22.47456,0 -40.76145,-18.28687 -40.76145,-40.76145 l 0,0 0,-98.39383 c 0.005,-11.62133 -9.44567,-21.07868 -21.06698,-21.07868 l 0,0 c -11.628,0 -21.08535,9.45735 -21.08535,21.07868 l 0,0 0,135.81582 c 0,1.7432 -1.4293,3.15914 -3.16582,3.15914 l 0,0 c -1.74987,0 -3.16581,-1.41594 -3.16581,-3.15914 l 0,0 0,-135.81582 c 0,-15.10773 12.2959,-27.41029 27.41698,-27.41029 l 0,0 c 15.10771,0 27.4036,12.30256 27.4036,27.41029 l 0,0 0,98.39383 c 0,18.9815 15.45502,34.43651 34.42983,34.43651 l 0,0 c 18.99485,0 34.44323,-15.45501 34.44323,-34.43651 l 0,0 0,-98.39383 c 0,-15.10773 12.2958,-27.41029 27.4036,-27.41029 l 0,0 c 15.121,0 27.4103,12.30256 27.4103,27.41029 l 0,0 0,135.81582 c 0,5.61697 4.575,10.18536 10.1987,10.18536 l 0,0 c 5.6103,0 10.1786,-4.56839 10.1786,-10.18536 l 0,0 0,-135.81582 c -10e-4,-26.34835 -21.434,-47.78768 -47.789,-47.78768 l 0,0 c -26.3416,0 -47.78764,21.43933 -47.78764,47.78768 m -341.43975,-44.36139 -0.20704,0.0134 c -17.33847,1.12206 -33.46807,8.175 -45.43001,19.86311 l 0,0 c -12.52297,12.22242 -19.40895,28.47224 -19.40895,45.75727 l 0,0 0,119.81315 c 0,1.94356 1.57623,3.51979 3.51311,3.51979 l 0,0 c 1.94358,0 3.51312,-1.57623 3.51312,-3.51979 l 0,0 0,-119.81315 c 0,-15.38155 6.13792,-29.84141 17.29172,-40.73472 l 0,0 c 10.75974,-10.50595 25.31311,-16.86428 40.9685,-17.87279 l 0,0 0.1269,-0.006 c 11.35417,-0.59442 22.90202,-0.78142 34.32297,-0.5677 l 0,0 c 1.28903,0.0267 3.09902,0.10688 5.02922,0.20036 l 0,0 c 0.97512,0.0401 1.97696,0.0869 2.93205,0.1269 l 0,0 c 1.50944,0.0601 2.74504,1.2022 2.9454,2.69829 l 0,0 c 0.1135,0.84821 -0.1135,1.66973 -0.63449,2.33761 l 0,0 c -0.68794,0.86159 -0.90166,1.15547 -4.09419,1.0486 l 0,0 c -4.59508,-0.15362 -9.29705,-0.24712 -13.9723,-0.2538 l 0,0 c -8.57572,-0.0267 -17.3919,0.19369 -26.24815,0.66122 l 0,0 c -14.16598,0.91501 -27.3101,6.63216 -37.0079,16.10287 l 0,0 c -9.93101,9.70446 -15.40772,22.58143 -15.40772,36.25985 l 0,0 0,114.25628 c 0,5.67709 4.6552,10.47256 10.15864,10.47256 l 0,0 c 5.50342,0 10.15195,-4.79547 10.15195,-10.47256 l 0,0 0,-114.26295 c 0,-17.01789 14.32628,-30.80987 33.32114,-32.08553 l 0,0 c 9.43731,-0.48756 19.03491,-0.68794 28.53902,-0.58775 l 0,0 c 3.28603,0.0334 8.83621,0.20036 12.89031,0.31391 l 0,0 3.01219,0.0801 c 1.91685,0.0601 3.55988,-1.46936 3.6133,-3.41292 l 0,0 c 0.0468,-1.93689 -1.48273,-3.55986 -3.41961,-3.60661 l 0,0 -3.00552,-0.0869 c -4.08081,-0.1135 -9.65771,-0.28052 -13.01721,-0.31392 l 0,0 c -9.65771,-0.10025 -19.40894,0.10025 -28.99986,0.6011 l 0,0 -0.0534,0.006 c -22.75508,1.50943 -39.90655,18.31359 -39.90655,39.09839 l 0,0 0,114.25629 c 0,1.80331 -1.48272,3.44632 -3.12573,3.44632 l 0,0 c -1.63634,0 -3.12574,-1.64301 -3.12574,-3.44632 l 0,0 0,-114.26296 c -0.005,-24.15765 19.70282,-43.64674 45.79735,-45.34319 l 0,0 c 8.6826,-0.45416 17.35184,-0.67458 25.81403,-0.64785 l 0,0 c 4.60177,0.006 9.23027,0.10012 13.7519,0.24711 l 0,0 c 3.70012,0.1269 6.98615,-0.0601 9.87144,-3.73351 l 0,0 c 1.68977,-2.17065 2.42445,-4.86225 2.05711,-7.59394 l 0,0 c -0.6345,-4.89564 -4.6886,-8.59576 -9.61765,-8.80281 l 0,0 c -0.9417,-0.0335 -1.93017,-0.0802 -2.89862,-0.127 l 0,0 c -1.97697,-0.0869 -3.8337,-0.18033 -5.21624,-0.20036 l 0,0 c -3.06563,-0.0535 -6.13793,-0.0869 -9.22359,-0.0869 l 0,0 c -8.55569,0 -17.13142,0.2204 -25.6003,0.66121 m -186.15485,0.10013 c -17.71917,1.0152 -34.22279,8.26182 -46.49196,20.4041 l 0,0 c -12.44951,12.32261 -19.30876,28.54571 -19.30208,45.67046 l 0,0 0,57.57229 c -0.006,17.17817 6.83922,33.45471 19.28872,45.83075 l 0,0 c 12.32261,12.25581 28.85961,19.44233 46.5454,20.23044 l 0,0 c 8.38203,0.36734 21.75991,0.55436 35.05765,0.55436 l 0,0 c 12.98381,0 25.88081,-0.17365 33.9623,-0.53432 l 0,0 0.6679,-0.0334 c 1.28235,-0.0735 2.61145,-0.14026 3.98731,-0.3807 l 0,0 c 2.69829,-0.48088 5.0359,-1.997 6.59877,-4.28787 l 0,0 c 1.54283,-2.2508 2.12389,-4.98915 1.64969,-7.7008 l 0,0 c -0.92169,-5.22265 -5.73051,-8.77582 -11.43431,-8.44188 l 0,0 -0.68125,0.0334 c -0.41409,0.0267 -0.84154,0.0534 -1.18216,0.0735 l 0,0 c -16.49694,0.86827 -51.95533,1.19553 -68.28528,0.34731 l 0,0 c -25.68712,-1.34941 -45.80404,-21.41288 -45.79736,-45.69076 l 0,0 0,-57.57228 c 0,-24.15766 19.70281,-43.65343 45.79736,-45.33651 l 0,0 c 16.24981,-0.8549 20.35734,-0.8549 36.55373,-0.006 l 0,0 c 25.58026,1.65637 44.8623,21.15213 44.85562,45.34318 l 0,0 0,8.43548 c 0,24.16432 -19.70281,43.66009 -45.79735,45.34986 l 0,0 c -10.4258,0.54767 -22.22077,0.60778 -30.18872,0.60778 l 0,0 c -1.7432,0 -3.11238,-1.38922 -3.11238,-3.16581 l 0,0 c 0,-1.7432 1.41594,-3.15912 3.15913,-3.15912 l 0,0 3.17917,0 c 9.3772,0.006 17.47873,0.0134 27.4704,-0.62783 l 0,0 c 10.55269,-0.78811 20.30391,-5.05593 27.47039,-12.01537 l 0,0 c 7.4136,-7.1932 11.49442,-16.77745 11.49442,-26.98951 l 0,0 0,-8.43548 c 0,-10.24546 -3.90716,-19.88315 -11.00686,-27.11641 l 0,0 c -6.99282,-7.12641 -16.61047,-11.48775 -27.14312,-12.27586 l 0,0 c -16.6038,-1.06863 -20.79817,-1.06863 -37.44203,0 l 0,0 c -22.22077,1.66969 -38.96482,18.60742 -38.95813,39.39222 l 0,0 0,57.57229 c -0.006,10.23878 4.08081,19.90986 11.50109,27.23663 l 0,0 c 7.24663,7.14644 17.03124,11.45435 27.56391,12.12892 l 0,0 c 16.61715,1.06195 52.81689,1.08198 69.19361,0.0268 l 0,0 c 1.05526,-0.0735 4.32794,-0.34062 6.18467,-0.49424 l 0,0 0.62114,-0.0534 c 1.93689,-0.15361 3.37286,-1.85006 3.21924,-3.78695 l 0,0 c -0.16029,-1.93021 -1.85674,-3.37953 -3.79363,-3.21256 l 0,0 -0.62113,0.0535 c -1.84338,0.14694 -5.07598,0.41409 -6.09118,0.48756 l 0,0 c -16.12959,1.03523 -51.85514,1.01519 -68.26524,-0.0401 l 0,0 c -18.52065,-1.18218 -32.49295,-15.08769 -32.48626,-32.34601 l 0,0 0,-57.57229 c -0.006,-17.07132 13.95226,-30.99018 32.41948,-32.38608 l 0,0 c 16.20305,-1.04192 20.29723,-1.04192 36.4669,0 l 0,0 c 18.3136,1.37586 31.61132,15.00085 31.60465,32.38608 l 0,0 0,8.43548 c 0.006,16.85091 -13.95227,30.60948 -32.41948,31.99869 l 0,0 c -9.73119,0.62114 -17.71917,0.61447 -26.97616,0.60779 l 0,0 -3.18585,0 c -5.61696,0 -10.18535,4.57506 -10.18535,10.18535 l 0,0 c 0,5.62365 4.54835,10.19204 10.1386,10.19204 l 0,0 c 8.0481,0 19.96997,-0.0601 30.60281,-0.62115 l 0,0 c 14.16599,-0.91501 27.3101,-6.63884 37.00121,-16.10288 l 0,0 c 9.93824,-9.70446 15.41495,-22.58142 15.40828,-36.25984 l 0,0 0,-8.43548 c 0.005,-13.7185 -5.27635,-26.57542 -14.87395,-36.21311 l 0,0 c -9.45068,-9.49746 -22.42781,-15.23466 -36.59381,-16.14967 l 0,0 c -16.5704,-0.86158 -20.75808,-0.86158 -37.37523,0 l 0,0 c -14.17267,0.92168 -27.31679,6.64552 -37.0079,16.10956 l 0,0 c -9.93824,9.70446 -15.40827,22.58142 -15.40827,36.25317 l 0,0 0,57.57229 c -0.006,13.72517 5.45668,26.70232 15.37487,36.53368 l 0,0 c 9.77794,9.69112 22.9421,15.42832 37.08136,16.16967 l 0,0 c 16.51698,0.86158 52.36274,0.52763 69.06004,-0.3473 l 0,0 c 0.36734,-0.02 0.77475,-0.0468 1.16214,-0.0601 l 0,0 0.70127,-0.0468 c 1.78995,-0.10025 3.75357,0.67458 4.10087,2.64485 l 0,0 c 0.1603,0.89498 -0.0267,1.78995 -0.52764,2.53131 l 0,0 c -0.48088,0.70129 -1.19553,1.17549 -2.01703,1.31575 l 0,0 c -0.95508,0.17365 -2.01703,0.22709 -3.13242,0.28719 l 0,0 -0.66121,0.0334 c -16.16299,0.71465 -51.9286,0.70128 -68.34539,-0.0267 l 0,0 C 216.68996,392.6422 190.71565,366.71463 190.729,335.07659 l 0,0 0,-57.57228 c -0.006,-31.2106 25.98769,-57.1582 59.1218,-59.06169 l 0,0 c 16.26985,-0.72132 20.38406,-0.72132 36.61384,0 l 0,0 c 33.16752,1.89681 58.18007,27.29674 58.1734,59.06169 l 0,0 0,8.43547 c 0.005,31.0169 -25.981,56.79754 -59.1218,58.70102 l 0,0 c -9.02323,0.40074 -27.16985,0.64118 -36.74742,0.58107 l 0,0 -0.0268,0 c -1.9302,0 -3.49975,1.56287 -3.51311,3.49307 l 0,0 c -0.006,1.94358 1.55619,3.52648 3.49308,3.53983 l 0,0 c 9.6644,0.0534 27.978,-0.187 37.15483,-0.59442 l 0,0 c 17.73253,-1.02187 34.23614,-8.20172 46.47193,-20.21041 l 0,0 c 12.45619,-12.23579 19.32211,-28.39877 19.31544,-45.51016 l 0,0 0,-8.43547 c 0.005,-17.17151 -6.66557,-33.38125 -18.78113,-45.64374 l 0,0 c -12.01532,-12.16231 -28.35865,-19.4223 -46.06446,-20.4375 l 0,0 c -8.26183,-0.36734 -13.43799,-0.54767 -18.62083,-0.54767 l 0,0 c -5.1962,0 -10.3924,0.18033 -18.70097,0.55435 m -199.185436,0 c -17.72585,1.02187 -34.22946,8.18836 -46.4719197,20.20373 l 0,0 c -12.45618,12.23578 -19.3154303,28.39209 -19.3087503,45.50348 l 0,0 0,230.50957 c 0,1.93687 1.56955,3.51311 3.50643,3.51311 l 0,0 c 1.94357,0 3.5197903,-1.57624 3.5197903,-3.51311 l 0,0 0,-230.50957 c -0.006,-31.01023 25.9809997,-56.79085 59.1151097,-58.68766 l 0,0 c 16.3834,-0.728 29.74124,-0.728 46.07788,-0.006 l 0,0 c 33.180866,1.90348 59.161866,27.68411 59.155186,58.69433 l 0,0 0,58.30697 c 0.006,31.01023 -25.97432,56.80422 -59.115116,58.70103 l 0,0 c -8.14828,0.36066 -15.61531,0.541 -22.81518,0.541 l 0,0 -0.0935,0 c -6.97279,0 -21.57292,-0.44081 -24.35134,-0.65454 l 0,0 c -0.8549,-0.0601 -2.2174,-1.4894 -2.2174,-3.05895 l 0,0 c 0,-1.74319 1.42929,-3.15912 3.18584,-3.15912 l 0,0 c 4.16097,0 8.18167,0.16697 12.07548,0.33395 l 0,0 c 3.8671,0.16028 7.52715,0.3139 11.2807,0.3139 l 0,0 0.0401,0 c 7.36016,-0.006 14.9541,-0.21373 23.27604,-0.65453 l 0,0 c 14.172656,-0.91501 27.310096,-6.63217 37.007876,-16.10287 l 0,0 c 9.93824,-9.6978 15.40828,-22.57475 15.40828,-36.25987 l 0,0 0,-58.30697 c 0,-13.67173 -5.47004,-26.55537 -15.40828,-36.24648 l 0,0 c -9.69775,-9.47744 -22.83519,-15.1946 -37.054616,-16.10962 l 0,0 c -16.61046,-0.87493 -30.16867,-0.87493 -46.8259,0 l 0,0 c -14.17313,0.91424 -27.31725,6.6314 -37.01503,16.10879 l 0,0 c -9.9315497,9.69779 -15.4082797,22.57475 -15.4015897,36.24649 l 0,0 0,226.64247 c 0,5.61697 4.56837,10.18535 10.18535,10.18535 l 0,0 c 5.6169697,0 10.1920397,-4.56838 10.1920397,-10.18535 l 0,0 0,-226.64247 c 0,-16.84423 14.01236,-30.59613 32.55972,-31.99203 l 0,0 c 16.32329,-1.04858 29.64105,-1.04858 45.92426,-0.006 l 0,0 c 18.507286,1.3959 32.466226,15.14779 32.466226,31.9987 l 0,0 0,58.30697 c 0,16.8576 -13.95894,30.61618 -32.426156,32.00539 l 0,0 c -15.3014,0.9818 -32.59313,0.90834 -49.97835,-0.20705 l 0,0 c -1.94357,-0.12025 -3.60663,1.34915 -3.73352,3.28603 l 0,0 c -0.12025,1.93688 1.34247,3.60662 3.27935,3.73352 l 0,0 c 17.69245,1.12874 35.27805,1.2022 50.92008,0.19369 l 0,0 c 10.552696,-0.78811 20.303916,-5.05595 27.463716,-12.02206 l 0,0 c 7.42028,-7.19319 11.5011,-16.77077 11.5011,-26.98952 l 0,0 0,-58.30697 c 0,-10.20538 -4.08082,-19.78963 -11.5011,-26.98951 l 0,0 c -7.1598,-6.95942 -16.91102,-11.22726 -27.497106,-12.02205 l 0,0 c -16.65055,-1.06195 -30.2288,-1.06195 -46.90606,0 l 0,0 c -22.29423,1.68309 -39.10508,18.45385 -39.09839,39.01156 l 0,0 0,226.64247 c 0,1.7432 -1.4159397,3.15913 -3.1658097,3.15913 l 0,0 c -1.7432,0 -3.15913,-1.41593 -3.15913,-3.15913 l 0,0 0,-226.64247 c -0.006,-24.15765 19.7028197,-43.64673 45.7973497,-45.34317 l 0,0 c 16.35668,-0.85491 29.70117,-0.85491 46.01108,0 l 0,0 c 26.134606,1.69644 45.850786,21.18552 45.844106,45.34317 l 0,0 0,58.30697 c 0.006,24.16434 -19.7095,43.6601 -45.797346,45.34987 l 0,0 c -8.16165,0.42746 -15.63536,0.6345 -22.86862,0.6345 l 0,0 -0.0334,0 c -3.61302,0 -7.1996,-0.14025 -10.99991,-0.30055 l 0,0 c -3.9606,-0.17365 -8.05478,-0.34063 -12.36268,-0.34063 l 0,0 c -5.63033,0 -10.21207,4.56839 -10.21207,10.18535 l 0,0 c 0,5.09603 3.994,9.70448 8.70931,10.06514 l 0,0 c 2.86526,0.2204 17.79933,0.67457 24.89234,0.67457 l 0,0 0.0869,0 c 7.30674,0 14.87395,-0.18033 23.17585,-0.54767 l 0,0 c 17.732536,-1.02188 34.229466,-8.20171 46.471926,-20.21709 l 0,0 c 12.46286,-12.22242 19.31544,-28.38541 19.31544,-45.50349 l 0,0 0,-58.30697 c 0,-17.11138 -6.85258,-33.2677 -19.31544,-45.50347 l 0,0 C 131.38004,219.62536 114.88311,212.4522 97.103824,211.43032 l 0,0 c -8.3019,-0.36734 -15.83572,-0.55435 -23.37622,-0.55435 l 0,0 c -7.5405,0 -15.08768,0.18701 -23.41629,0.55435 m 482.391656,-0.20036 c -2.03038,0.0401 -5.1962,0.20036 -8.0147,0.32726 l 0,0 c -1.6163,0.0801 -3.13241,0.15363 -4.26782,0.20038 l 0,0 c -1.94358,0.0735 -3.45969,1.7098 -3.37954,3.64001 l 0,0 c 0.0735,1.93689 1.69645,3.453 3.64001,3.37952 l 0,0 c 1.15545,-0.0468 2.70497,-0.12025 4.35465,-0.19368 l 0,0 c 2.75173,-0.13358 5.88414,-0.28719 7.80099,-0.32059 l 0,0 c 11.43431,-0.2204 22.98216,-0.0268 34.33633,0.56104 l 0,0 0.1135,0.006 c 15.66207,1.02187 30.20876,7.36685 40.97517,17.87946 l 0,0 c 11.1538,10.89332 17.29173,25.35319 17.29173,40.72806 l 0,0 0,57.97302 c 0,15.37486 -6.13793,29.84141 -17.29173,40.72805 l 0,0 c -10.76641,10.51261 -25.3131,16.85759 -40.96181,17.87279 l 0,0 -0.1269,0.006 c -16.26985,0.85491 -21.72653,0.85491 -37.98303,0 l 0,0 -0.12688,-0.006 c -32.65967,-2.11721 -57.28484,-27.3101 -57.27815,-58.60753 l 0,0 0.005,-8.43547 c -0.005,-15.36819 6.13258,-29.83473 17.2797,-40.72137 l 0,0 c 10.76642,-10.51261 25.31978,-16.86428 40.9685,-17.87946 l 0,0 0.1269,-0.006 c 8.28185,-0.42735 18.10655,-0.62772 30.93007,-0.62772 l 0,0 c 1.72316,0 3.13241,1.40258 3.13241,3.12574 l 0,0 c 0,1.71648 -1.40925,3.12573 -3.13241,3.12573 l 0,0 c -7.99466,0 -19.86979,0.0668 -30.64289,0.62782 l 0,0 c -14.17266,0.92169 -27.3101,6.63885 -37.00788,16.10955 l 0,0 c -9.9321,9.6978 -15.40882,22.57475 -15.40882,36.2465 l 0,0 0,8.43547 c 0,13.72519 5.28972,26.58879 14.88064,36.22646 l 0,0 c 9.45068,9.49743 22.43449,15.22794 36.58713,16.14295 l 0,0 c 16.57707,0.86827 20.76476,0.86827 37.38191,0 l 0,0 c 14.17266,-0.92168 27.3101,-6.64552 37.01457,-16.10955 l 0,0 c 9.92488,-9.70447 15.40159,-22.57475 15.40159,-36.25317 l 0,0 0,-57.97302 c 0,-13.67844 -5.47671,-26.54871 -15.40159,-36.2465 l 0,0 c -9.70447,-9.47739 -22.84191,-15.19455 -37.06132,-16.11624 l 0,0 c -14.53334,-0.7614 -28.93309,-0.86157 -42.81856,-0.30055 l 0,0 c -5.46335,0.21373 -9.73119,4.66856 -9.73119,10.14528 l 0,0 c 0,5.59693 4.55502,10.15196 10.15196,10.15196 l 0,0 c 2.35099,0 4.72868,-0.0869 7.01955,-0.1603 l 0,0 c 1.85674,-0.0601 3.79363,-0.1269 5.67708,-0.14693 l 0,0 c 9.49075,-0.10025 19.10171,0.0935 28.53235,0.58774 l 0,0 c 19.00152,1.27568 33.32112,15.06765 33.32112,32.08554 l 0,0 0,57.97302 c 0,17.03124 -14.33295,30.82321 -33.29441,32.08552 l 0,0 c -15.72218,0.82152 -19.32211,0.82152 -34.99086,0 l 0,0 c -18.7544,-1.24227 -32.35937,-14.74037 -32.35937,-32.08552 l 0,0 0.005,-8.44216 c -0.005,-17.01789 14.31293,-30.80985 33.31447,-32.07885 l 0,0 c 9.69778,-0.50091 23.75691,-0.68792 32.63987,-0.59442 l 0,0 0.17365,0 c 1.93689,0 3.51311,-1.57623 3.51311,-3.51979 l 0,0 c 0,-1.93689 -1.57622,-3.50644 -3.51311,-3.50644 l 0,0 -0.10012,0 c -8.99652,-0.0935 -23.26269,0.0869 -33.10074,0.6011 l 0,0 -0.0467,0.006 c -22.75508,1.50944 -39.91323,18.32029 -39.91323,39.09172 l 0,0 0,8.44215 c 0,21.15883 16.35668,37.60233 38.96483,39.0984 l 0,0 c 16.04944,0.84155 19.72952,0.84155 35.81904,0 l 0,0 c 22.76176,-1.50944 39.91323,-18.32027 39.91323,-39.0984 l 0,0 0,-57.97302 c 0,-20.77811 -17.15147,-37.58896 -39.91323,-39.0984 l 0,0 -0.0467,-0.006 c -9.58425,-0.50091 -19.34215,-0.6946 -28.99319,-0.59442 l 0,0 c -1.97029,0.02 -3.94056,0.0801 -5.85074,0.14693 l 0,0 c -2.23075,0.0801 -4.54166,0.1603 -6.77242,0.1603 l 0,0 c -1.72984,0 -3.12573,-1.40257 -3.12573,-3.12573 l 0,0 c 0,-1.68309 1.31574,-3.05895 2.98547,-3.12574 l 0,0 c 13.66507,-0.54768 27.85109,-0.44749 42.12396,0.30055 l 0,0 c 26.14796,1.68977 45.8441,21.17886 45.8441,45.34319 l 0,0 0,57.97302 c 0,24.15765 -19.69614,43.65342 -45.79068,45.34987 l 0,0 c -16.24981,0.84154 -20.35066,0.84154 -36.55372,0 l 0,0 c -25.58705,-1.66316 -44.85573,-21.15892 -44.85573,-45.34997 l 0,0 0,-8.44215 c 0,-24.15765 19.70281,-43.64674 45.79068,-45.33651 l 0,0 c 10.5794,-0.55435 22.32095,-0.62114 30.23546,-0.62114 l 0,0 c 5.59693,0 10.15864,-4.55502 10.15864,-10.15196 l 0,0 c 0,-5.60361 -4.56171,-10.15864 -10.15864,-10.15864 l 0,0 c -12.93706,0 -22.88198,0.20705 -31.29741,0.64786 l 0,0 -0.20705,0.0134 c -17.33181,1.11539 -33.46139,8.16833 -45.42334,19.85644 l 0,0 c -12.51629,12.21573 -19.41562,28.47223 -19.41562,45.75059 l 0,0 0,8.43548 c 0,35.05765 27.45037,63.26272 63.85716,65.62038 l 0,0 0.20705,0.0134 c 8.24846,0.42745 13.77861,0.66789 19.3555,0.66789 l 0,0 c 5.59026,0 11.11372,-0.24044 19.36887,-0.66789 l 0,0 0.20036,-0.0134 c 17.33848,-1.12206 33.46139,-8.175 45.43002,-19.85642 l 0,0 c 12.5163,-12.22243 19.40895,-28.47224 19.40895,-45.75729 l 0,0 0,-57.97302 c 0,-17.28504 -6.89265,-33.53485 -19.40895,-45.75727 l 0,0 C 601.19971,219.99886 585.0768,212.94592 567.73832,211.82386 l 0,0 -0.20036,-0.0134 c -8.48222,-0.44081 -17.06464,-0.66788 -25.62701,-0.66788 l 0,0 c -3.07231,0 -6.14461,0.0334 -9.21024,0.0869 m -668.84707,0 c -2.02238,0.0401 -5.20154,0.20036 -8.00669,0.32726 l 0,0 c -1.62297,0.0801 -3.14577,0.15362 -4.27451,0.20037 l 0,0 c -1.94356,0.0735 -3.453,1.70981 -3.37953,3.64001 l 0,0 c 0.0735,1.93689 1.7098,3.453 3.64669,3.37954 l 0,0 c 1.15545,-0.0468 2.69828,-0.12025 4.34798,-0.19369 l 0,0 c 2.75838,-0.13358 5.87745,-0.2872 7.80097,-0.32059 l 0,0 c 11.43431,-0.22041 22.98216,-0.0267 34.32965,0.56103 l 0,0 0.1269,0.006 c 15.648714,1.02187 30.202074,7.36685 40.968504,17.87947 l 0,0 c 11.15378,10.89331 17.29171,25.35318 17.29171,40.72805 l 0,0 0,57.97302 c 0,15.37488 -6.13793,29.84141 -17.29171,40.72806 l 0,0 c -10.76643,10.51262 -25.31979,16.85759 -40.961834,17.87279 l 0,0 -0.1269,0.006 c -16.26984,0.8549 -21.73319,0.8549 -37.98968,0 l 0,0 -0.12025,-0.006 c -32.6666,-2.11717 -57.2851,-27.31006 -57.27842,-58.60747 l 0,0 0,-8.43548 c 0,-15.3682 6.13125,-29.83473 17.29173,-40.72137 l 0,0 c 10.75974,-10.51262 25.3131,-16.86427 40.96181,-17.87947 l 0,0 0.1269,-0.006 c 8.28187,-0.42745 18.11323,-0.62782 30.93008,-0.62782 l 0,0 c 1.71649,0 3.12574,1.40257 3.12574,3.12573 l 0,0 c 0,1.71649 -1.40925,3.12574 -3.12574,3.12574 l 0,0 c -7.99466,0 -19.86311,0.0668 -30.64289,0.62782 l 0,0 c -14.17205,0.92094 -27.30949,6.63809 -37.00728,16.1088 l 0,0 c -9.93155,9.69779 -15.40159,22.57475 -15.40159,36.2465 l 0,0 0,8.43547 c -0.007,13.72518 5.27635,26.58878 14.86728,36.22646 l 0,0 c 9.45735,9.49743 22.44117,15.22794 36.5938,16.14295 l 0,0 c 16.57708,0.86827 20.76477,0.86827 37.38191,0 l 0,0 c 14.165994,-0.92168 27.310104,-6.64552 37.007894,-16.10956 l 0,0 c 9.93156,-9.70446 15.4016,-22.57475 15.4016,-36.25317 l 0,0 0,-57.97302 c 0,-13.67843 -5.47004,-26.5487 -15.4016,-36.2465 l 0,0 c -9.69779,-9.47734 -22.8419,-15.19449 -37.054644,-16.11618 l 0,0 c -14.53333,-0.7614 -28.93308,-0.86159 -42.81856,-0.30055 l 0,0 c -5.46335,0.21373 -9.73118,4.66856 -9.73118,10.14528 l 0,0 c 0,5.59693 4.54835,10.15196 10.15196,10.15196 l 0,0 c 2.35097,0 4.722,-0.0869 7.01286,-0.1603 l 0,0 c 1.8701,-0.0601 3.80031,-0.1269 5.67709,-0.14694 l 0,0 c 9.5041,-0.10025 19.10839,0.0935 28.53902,0.58775 l 0,0 c 19.001524,1.27568 33.314454,15.06764 33.314454,32.08553 l 0,0 0,57.97302 c 0,17.03125 -14.32629,30.82321 -33.294414,32.08553 l 0,0 c -15.7155,0.8215 -19.31544,0.8215 -34.98419,0 l 0,0 c -18.7544,-1.24228 -32.35936,-14.74037 -32.35268,-32.08553 l 0,0 0,-8.44215 c 0,-17.01789 14.31292,-30.80986 33.31445,-32.07885 l 0,0 c 9.6978,-0.50092 23.75692,-0.68794 32.63988,-0.59442 l 0,0 0.17365,0 c 1.94356,0 3.51311,-1.57623 3.51311,-3.5198 l 0,0 c 0,-1.93688 -1.56955,-3.50643 -3.51311,-3.50643 l 0,0 -0.10025,0 c -9.00317,-0.0935 -23.26935,0.0869 -33.10072,0.6011 l 0,0 -0.0467,0.006 c -22.7617,1.50965 -39.91317,18.32049 -39.91317,39.09192 l 0,0 0,8.44216 c 0,21.15882 16.36336,37.60232 38.96482,39.0984 l 0,0 c 16.04945,0.84154 19.72954,0.84822 35.81905,0 l 0,0 c 22.761764,-1.50943 39.913224,-18.32028 39.906544,-39.0984 l 0,0 0,-57.97302 c 0.006,-20.77812 -17.14478,-37.58896 -39.906544,-39.0984 l 0,0 -0.0468,-0.006 c -9.5842,-0.50086 -19.3421,-0.69455 -28.99314,-0.59437 l 0,0 c -1.97029,0.02 -3.94056,0.0801 -5.85074,0.14694 l 0,0 c -2.23076,0.0801 -4.54166,0.1603 -6.77242,0.1603 l 0,0 c -1.72984,0 -3.12574,-1.40258 -3.12574,-3.12574 l 0,0 c 0,-1.68309 1.31575,-3.05895 2.99216,-3.12574 l 0,0 c 13.65839,-0.54767 27.84442,-0.44749 42.12395,0.30055 l 0,0 c 26.134614,1.68978 45.837434,21.17886 45.837434,45.34319 l 0,0 0,57.97302 c 0,24.15765 -19.70282,43.65342 -45.797374,45.34987 l 0,0 c -16.24312,0.84154 -20.35066,0.84154 -36.55372,0 l 0,0 c -25.57358,-1.66306 -44.85562,-21.15882 -44.84894,-45.34987 l 0,0 0,-8.44215 c -0.007,-24.15765 19.70281,-43.64673 45.79735,-45.33651 l 0,0 c 10.56605,-0.55435 22.31427,-0.62114 30.22879,-0.62114 l 0,0 c 5.59694,0 10.151964,-4.55502 10.151964,-10.15196 l 0,0 c 0,-5.60361 -4.555024,-10.15864 -10.151964,-10.15864 l 0,0 c -12.94375,0 -22.88197,0.20705 -31.29742,0.64787 l 0,0 -0.20037,0.0134 c -17.33847,1.1152 -33.46806,8.16813 -45.43001,19.85625 l 0,0 c -12.52324,12.21573 -19.41589,28.47222 -19.41589,45.75059 l 0,0 0,8.43547 c 0,35.05765 27.44369,63.26273 63.86384,65.62039 l 0,0 0.20036,0.0134 c 8.24847,0.42745 13.77862,0.66789 19.36219,0.66789 l 0,0 c 5.5769,0 11.10705,-0.24044 19.36219,-0.66789 l 0,0 0.20037,-0.0134 c 17.338484,-1.12206 33.468064,-8.175 45.430014,-19.85643 l 0,0 c 12.51629,-12.22242 19.41561,-28.47223 19.41561,-45.75728 l 0,0 0,-57.97302 c 0,-17.28504 -6.89932,-33.53485 -19.41561,-45.75728 l 0,0 c -11.96195,-11.68144 -28.09822,-18.73437 -45.436704,-19.85644 l 0,0 -0.19368,-0.0134 c -8.48223,-0.44081 -17.06464,-0.66789 -25.62701,-0.66789 l 0,0 c -3.0723,0 -6.14462,0.0334 -9.21024,0.0869" />
  </g>
</svg>
