<?xml version="1.0" encoding="UTF-8"?>
<svg xmlns="http://www.w3.org/2000/svg" xmlns:xlink="http://www.w3.org/1999/xlink" width="550px" height="105px" viewBox="0 0 549 105" version="1.1">
<defs>
<clipPath id="clip1">
  <path d="M 0 0.0078125 L 83 0.0078125 L 83 104.441406 L 0 104.441406 Z M 0 0.0078125 "/>
</clipPath>
<linearGradient id="linear0" gradientUnits="userSpaceOnUse" x1="0" y1="0" x2="1" y2="0" gradientTransform="matrix(82.3194,-82.449614,82.3194,82.449614,-9.870981,94.473602)">
<stop offset="0" style="stop-color:rgb(78.431373%,8.235294%,87.843137%);stop-opacity:1;"/>
<stop offset="0.8" style="stop-color:rgb(4.705882%,44.705882%,92.941176%);stop-opacity:1;"/>
<stop offset="1" style="stop-color:rgb(4.705882%,44.705882%,92.941176%);stop-opacity:1;"/>
</linearGradient>
</defs>
<g id="surface1">
<g clip-path="url(#clip1)" clip-rule="nonzero">
<path style=" stroke:none;fill-rule:nonzero;fill:url(#linear0);" d="M 74.859375 52.261719 C 71.09375 56.933594 66.195312 60.558594 60.628906 62.792969 C 64.226562 67.234375 66.046875 72.175781 64.734375 77.316406 C 63.484375 82.21875 58.800781 87.011719 52.132812 87.011719 L 17.375 87.011719 L 17.375 60.90625 L 47.789062 60.90625 C 64.558594 60.90625 78.199219 47.246094 78.199219 30.453125 C 78.199219 13.660156 64.558594 0 47.789062 0 L 0 0 L 0 39.152344 L 17.375 39.152344 L 17.375 17.402344 L 47.789062 17.402344 C 54.984375 17.40625 60.816406 23.246094 60.820312 30.453125 C 60.8125 37.660156 54.984375 43.496094 47.789062 43.503906 L 0 43.503906 L 0 104.433594 L 52.132812 104.433594 C 68.902344 104.433594 82.546875 90.769531 82.546875 73.980469 C 82.546875 66.53125 80.453125 58.167969 74.859375 52.261719 "/>
</g>
<path style=" stroke:none;fill-rule:nonzero;fill:rgb(8.627451%,1.176471%,19.215686%);fill-opacity:1;" d="M 549.5625 47.695312 C 549.828125 49.597656 549.976562 51.515625 550.015625 53.4375 C 550.015625 68.226562 539.445312 79.195312 524.519531 79.195312 C 509.59375 79.195312 497.449219 66.765625 497.449219 52.039062 C 497.449219 37.25 509.59375 25.238281 524.65625 25.238281 C 532.566406 25.242188 540.070312 28.730469 545.179688 34.777344 L 538.65625 39.878906 C 535.136719 35.816406 530.027344 33.492188 524.65625 33.503906 C 519.738281 33.476562 515.011719 35.421875 511.53125 38.902344 C 508.050781 42.382812 506.105469 47.117188 506.125 52.042969 C 506.097656 56.941406 508.027344 61.644531 511.480469 65.113281 C 514.933594 68.582031 519.628906 70.523438 524.519531 70.507812 C 533.03125 70.507812 538.414062 66.257812 540.550781 58.628906 C 540.644531 58.296875 540.890625 57.113281 540.890625 56.386719 L 523.507812 56.386719 L 523.507812 47.699219 Z M 493.105469 78.292969 L 471.378906 26.105469 L 462.691406 26.105469 L 440.972656 78.324219 L 449.660156 78.324219 L 456.175781 63.09375 L 477.898438 63.09375 L 484.417969 78.292969 Z M 467.035156 36.984375 L 474.75 55.476562 L 459.324219 55.476562 Z M 395.351562 26.105469 L 395.351562 34.808594 L 414.902344 34.808594 L 414.902344 78.324219 L 423.589844 78.324219 L 423.589844 34.808594 L 443.140625 34.808594 L 443.140625 26.105469 Z M 375.800781 65.566406 L 349.730469 26.105469 L 338.875 26.105469 L 338.875 78.324219 L 347.5625 78.324219 L 347.5625 39.160156 L 373.871094 78.292969 L 384.488281 78.292969 L 384.488281 26.136719 L 375.800781 26.136719 Z M 314.980469 65.566406 L 288.910156 26.105469 L 278.046875 26.105469 L 278.046875 78.324219 L 286.734375 78.324219 L 286.734375 39.160156 L 313.046875 78.292969 L 323.667969 78.292969 L 323.667969 26.136719 L 314.980469 26.136719 Z M 262.839844 26.105469 L 228.085938 26.105469 L 228.085938 78.324219 L 262.839844 78.324219 L 262.839844 69.621094 L 236.722656 69.621094 L 236.722656 56.566406 L 258.496094 56.566406 L 258.496094 47.863281 L 236.722656 47.863281 L 236.722656 34.808594 L 262.839844 34.808594 Z M 156.398438 51.125 C 159.457031 48.84375 160.746094 45.269531 160.746094 41.335938 C 160.746094 33.121094 154.230469 26.105469 145.90625 26.105469 L 121.644531 26.105469 L 121.644531 78.324219 L 147.226562 78.324219 C 156.398438 78.324219 162.917969 71.308594 162.917969 63.09375 C 162.917969 57.542969 159.875 52.925781 156.398438 51.125 M 152.054688 41.335938 C 152.054688 45.375 149.453125 47.863281 145.558594 47.863281 L 130.335938 47.863281 L 130.335938 34.808594 L 145.558594 34.808594 C 149.453125 34.808594 152.054688 37.300781 152.054688 41.335938 M 130.335938 69.621094 L 130.335938 56.566406 L 146.945312 56.566406 C 150.839844 56.566406 154.230469 59.105469 154.230469 63.144531 C 154.230469 67.179688 150.839844 69.621094 146.945312 69.621094 Z M 217.226562 78.324219 L 202.019531 57.652344 C 209.855469 55.121094 212.882812 48.835938 212.882812 42.199219 C 212.882812 33.296875 206.695312 26.105469 197.109375 26.105469 L 173.78125 26.105469 L 173.78125 78.324219 L 182.46875 78.324219 L 182.46875 58.742188 L 191.703125 58.742188 L 206.363281 78.324219 Z M 196.761719 34.808594 C 201.761719 34.808594 204.191406 37.679688 204.191406 42.199219 C 204.191406 46.789062 201.761719 50.039062 196.761719 50.039062 L 182.46875 50.039062 L 182.46875 34.808594 Z M 196.761719 34.808594 "/>
</g>
</svg>
